/* XPM */
static char * fill_cap_xx_xpm[] = {
"33 33 2 1",
" 	c #C0C0C0C0C0C0",
".	c #999999999999",
"                                 ",
"                                 ",
"                                 ",
"                                 ",
"    .........................    ",
"                                 ",
"                                 ",
"    .........................    ",
"                                 ",
"                                 ",
"    .........................    ",
"                                 ",
"                                 ",
"    .........................    ",
"                                 ",
"                                 ",
"    ..........                   ",
"                                 ",
"                                 ",
"                                 ",
"                                 ",
"         ....... . .. ..         ",
"          .    .    .  .         ",
"          .         .  .         ",
"          .   . ..  .  .         ",
"          .....  .  .  .         ",
"          .   .  .  .  .         ",
"          .      .  .  .         ",
"          .      .  .  .         ",
"         ...    .........        ",
"                                 ",
"                                 ",
"                                 "};
