/* XPM */
static char * fill_cap_up_xpm[] = {
"33 33 4 1",
" 	c #BFBFBFBFBFBF",
".	c #00000000FFFF",
"X	c #C0C0C0C0C0C0",
"o	c #000000000000",
"                                 ",
"                                 ",
"                                 ",
"                                 ",
"    .........................    ",
"      XXXXXXXXX                  ",
"      XXXXXXXXXXXXXXX            ",
"    .........................    ",
"          XXXXXXXXXXXX           ",
"          XXXXXXXXXXXX           ",
"    .........................    ",
"          XXXXXXXXXXXXXX         ",
"           XXXXXXXXXXXXX         ",
"    .........................    ",
"           XXXXXXXXXXXXX         ",
"           XXXXXXXXXXXX          ",
"    ..........XXXXXXXX           ",
"      XXXXXXXXXXXXXXXXXXXX       ",
"      XXXXXXXXXXXXXXXXXXXX       ",
"     X                           ",
"     X                    X      ",
"    XXX  ooooooo o oo oo  XX     ",
"    XXXXXXo XXXoXXX o  oXXXX     ",
"    XXXXXXoXXX    X o  oXXXXX    ",
"    XXXXXXoXXXoXoo  o XoXXXXX    ",
"    XXXXXXoooooXXo  o XoXXXXX    ",
"     X XXXoXXXoXXoXXoXXoXXXXX    ",
"     XXXXXoXXXXXXoXXoXXoXXXXX    ",
"    XXXXXXoXXXXXXoXXoXXoXXXXX    ",
"    XXXXXoooXXXXoooooooooXXX     ",
"    XXXXXXXXXXXXXXXXXXXXXXXX     ",
"      XXXXXXXXXXXXXXXXXXXXXX     ",
"                                 "};
