/* XPM */
static char * fill_xx_xpm[] = {
"28 28 2 1",
" 	c #BFBFBFBFBFBF",
".	c #000000000000",
"                            ",
"                            ",
"                            ",
"                            ",
"                            ",
"                            ",
"                            ",
"  . . . . . . . . . . . .   ",
"                            ",
"                            ",
"  . . . . . . . . . . . .   ",
"                            ",
"                            ",
"  . . . . . . . . . . . .   ",
"                            ",
"                            ",
"  . . . . . . . . . . . .   ",
"                            ",
"                            ",
"  . . . . .                 ",
"                            ",
"                            ",
"                            ",
"                            ",
"                            ",
"                            ",
"                            ",
"                            "};
