/* XPM */
static char *Pixmap[] = {
"33 33 16 2",
"00 c gray75",
"01 c gray60",
"02 c gray40",
"03 c gray60",
"04 c gray100",
"05 c gray90",
"06 c black",
"07 c black",
"08 c black",
"09 c black",
"10 c black",
"11 c black",
"12 c black",
"13 c black",
"14 c black",
"15 c black",
"000000000000000000000000000000000000000000000000000000000000000000",
"000000000000000000010101010101010101010101010101010000000000000000",
"000000000000000001010101010101010102010201020102010100000000000000",
"000000000000000001010101010101010102010201020102010100000000000000",
"000000000000000001010101010101010101010101010101010101000000000000",
"000000000000000000010404040404040404040404050500010101000000000000",
"000000000000000001040404040404040404040404050500000101000000000000",
"000000000000000001040404040404040404040404050500000101000000000000",
"000000000000000001040404040404010404010104050500000101000000000000",
"000000000000000001040404010404010401010101050500000101000000000000",
"000000000000000001040404040104010104010101050500000101000000000000",
"000000000000000001040404040401010101010104050500000101000000000000",
"000000000000000001040101010401010101010404050500000101000000000000",
"000000000000000001040404010104010101010101050500000101000000000000",
"000000000000000001040401040101010101040404050500000101000000000000",
"000000000000000001040101010101010404010404050500000101000000000000",
"000000000000000001040101010101010404040104050500000101000000000000",
"000000000000000001040101010101010104040404050500000101000000000000",
"000000000000000001040101010101040104040404050500000101000000000000",
"000000000000000001040401010104040104040404050500000101000000000000",
"000000000000000001040404040404040404040404050500000101000000000000",
"000000000000000000010101010101010101010101010101010101000000000000",
"000000000000000000010101010101010101010101010101010101000000000000",
"000000000000000000000101010101010101010101010101010100000000000000",
"000000000000000000000000000000000000000000000000000000000000000000",
"000000000000000000000101010000000000000000000000000000000000000000",
"000000000000000000000001000000000000000000000000000000000000000000",
"000000000000000000000001000000000001010000000101010000000000000000",
"000000000000000000000001000000000100000100010000010000000000000000",
"000000000000000000000001000001000100000100010000010000000000000000",
"000000000000000000000101010101000001010000000101010000000000000000",
"000000000000000000000000000000000000000000000000010000000000000000",
"000000000000000000000000000000000000000000000101000000000000000000"
};
