/* XPM */
static char * psp5_xpm[] = {
"64 48 3 1",
" 	c None",
".	c #000000",
"+	c #FFFFFF",
"                                                                ",
"                                                                ",
"                                                                ",
"                                                                ",
"                    ................................            ",
"                    .++++++++++++++++++++++++++++++.            ",
"                    .++++++++++++++++++++++++++++++.            ",
"                    .++++++++++++++++++++++++++++++.            ",
"                    .++++++++++++++++++++++++++++++.            ",
"                    .+++++++++......++..+++++++++++.            ",
"                    .++++++++++++++++++++++++++++++.            ",
"                    .++++++++++++++++++++++++++++++.            ",
"            ......   ......++...........+..++++++++.            ",
"             .....   .....+++...........+++++++++++.            ",
"             ...... ......+++...........+++++++++++.            ",
"              ..... .....++++...........+++.....+++.            ",
"              ...........++++......++++++++++++++++.            ",
"               .........+++++......++++++++++++++++.            ",
"               .........+++++...........+++++++++++.            ",
"                .......++++++...........+++++++++++.            ",
"               ..........++++...........+++++++++++.            ",
"               .........+++++...........++....+++++.            ",
"              ...........++++......++++++++++++++++.            ",
"              ............+++......++++++++++++++++.            ",
"             ...... ......+++...........+++++++++++.            ",
"             .....   .....+++...........+++++++++++.            ",
"            ......   ......++...........+........++.            ",
"           .......  .......++...........+++++++++++.            ",
"                    .+++++++++++++++++++.........++.            ",
"                    .++++++++++++.+..++.+.+++++++++.            ",
"                    .++++++++++++++++++++++++++++++.            ",
"                    .++++++++++++..+....++.++++++++.            ",
"                    .++++...+++++++++++++++++++++++.            ",
"                    .+++.....++++++++++++++++++++++.            ",
"                    .+++.....+...++....++++++++++++.            ",
"                    .+++.....++++++++++++++++++++++.            ",
"                    .++++...+++++++++++++++++++++++.            ",
"                    .+++++++++++++++...+.+...++++++.            ",
"                    .++++++++++++++++++++++++++++++.            ",
"                    .++++++++++++++++++++++++++++++.            ",
"                    .+++++++++++++++++++++.....++++.            ",
"                    .++++++++++++++++++++++++++++++.            ",
"                    .++++++++++++++++++++++++++++++.            ",
"                    ................................            ",
"                                                                ",
"                                                                ",
"                                                                ",
"                                                                "};
