#define my-xemacs-icon_width 64
#define my-xemacs-icon_height 48
static char my-xemacs-icon_bits[] = {
 0x00,0x00,0x00,0x00,0x00,0x00,0x00,0x00,0x00,0x00,0x00,0x00,0x00,0x00,0x00,
 0x00,0x00,0x00,0x00,0x00,0x00,0x00,0x00,0x00,0x00,0x00,0x00,0x00,0x00,0x00,
 0x00,0x00,0x00,0x00,0xf0,0xff,0xff,0xff,0x0f,0x00,0x00,0x00,0x10,0x00,0x00,
 0x00,0x08,0x00,0x00,0x00,0x10,0x00,0x00,0x00,0x08,0x00,0x00,0x00,0x10,0x00,
 0x00,0x00,0x08,0x00,0x00,0x00,0x10,0x00,0x00,0x00,0x08,0x00,0x00,0x00,0x10,
 0xc0,0xcf,0x00,0x08,0x00,0x00,0x00,0x10,0x00,0x00,0x00,0x08,0x00,0x00,0x00,
 0x10,0x00,0x00,0x00,0x08,0x00,0x00,0xf0,0xe3,0xe7,0xff,0x06,0x08,0x00,0x00,
 0xe0,0xe3,0xe3,0xff,0x00,0x08,0x00,0x00,0xe0,0xf7,0xe3,0xff,0x00,0x08,0x00,
 0x00,0xc0,0xf7,0xe1,0xff,0xf8,0x08,0x00,0x00,0xc0,0xff,0xe1,0x07,0x00,0x08,
 0x00,0x00,0x80,0xff,0xe0,0x07,0x00,0x08,0x00,0x00,0x80,0xff,0xe0,0xff,0x00,
 0x08,0x00,0x00,0x00,0x7f,0xe0,0xff,0x00,0x08,0x00,0x00,0x80,0xff,0xe1,0xff,
 0x00,0x08,0x00,0x00,0x80,0xff,0xe0,0xff,0x3c,0x08,0x00,0x00,0xc0,0xff,0xe1,
 0x07,0x00,0x08,0x00,0x00,0xc0,0xff,0xe3,0x07,0x00,0x08,0x00,0x00,0xe0,0xf7,
 0xe3,0xff,0x00,0x08,0x00,0x00,0xe0,0xe3,0xe3,0xff,0x00,0x08,0x00,0x00,0xf0,
 0xe3,0xe7,0xff,0xfe,0x09,0x00,0x00,0xf8,0xf3,0xe7,0xff,0x00,0x08,0x00,0x00,
 0x00,0x10,0x00,0x00,0xff,0x09,0x00,0x00,0x00,0x10,0x00,0x9a,0x02,0x08,0x00,
 0x00,0x00,0x10,0x00,0x00,0x00,0x08,0x00,0x00,0x00,0x10,0x00,0xf6,0x04,0x08,
 0x00,0x00,0x00,0x10,0x0e,0x00,0x00,0x08,0x00,0x00,0x00,0x10,0x1f,0x00,0x00,
 0x08,0x00,0x00,0x00,0x10,0xdf,0x79,0x00,0x08,0x00,0x00,0x00,0x10,0x1f,0x00,
 0x00,0x08,0x00,0x00,0x00,0x10,0x0e,0x00,0x00,0x08,0x00,0x00,0x00,0x10,0x00,
 0x70,0x1d,0x08,0x00,0x00,0x00,0x10,0x00,0x00,0x00,0x08,0x00,0x00,0x00,0x10,
 0x00,0x00,0x00,0x08,0x00,0x00,0x00,0x10,0x00,0x00,0x7c,0x08,0x00,0x00,0x00,
 0x10,0x00,0x00,0x00,0x08,0x00,0x00,0x00,0x10,0x00,0x00,0x00,0x08,0x00,0x00,
 0x00,0xf0,0xff,0xff,0xff,0x0f,0x00,0x00,0x00,0x00,0x00,0x00,0x00,0x00,0x00,
 0x00,0x00,0x00,0x00,0x00,0x00,0x00,0x00,0x00,0x00,0x00,0x00,0x00,0x00,0x00,
 0x00,0x00,0x00,0x00,0x00,0x00,0x00,0x00,0x00};
