/* XPM */
static char * shell-cap-xx_xpm[] = {
"33 33 2 1",
" 	c #BFBFBFBFBFBF",
".	c #999999999999",
"                                 ",
"                                 ",
"                                 ",
"                                 ",
"                                 ",
"                                 ",
"                                 ",
"                                 ",
"              ...  .             ",
"             .  ....             ",
"             .  . .              ",
"             .  . .              ",
"             ... . ...           ",
"                . .  .           ",
"                . .  .           ",
"               .  .  .           ",
"              .   ...            ",
"                                 ",
"                                 ",
"                                 ",
"                                 ",
"                                 ",
"      .... ..         .. ..      ",
"     .   .  .          .  .      ",
"     .   .  .          .  .      ",
"     ..     . ..   ..  .  .      ",
"       .    .. .  .  . .  .      ",
"        ..  .  .  .... .  .      ",
"     .   .  .  .  .    .  .      ",
"     .   .  .  .  .  . .  .      ",
"     ....  ... ..  .. ......     ",
"              .                  ",
"                                 "};
