/* XPM */
static char * shell-xx_xpm[] = {
"28 28 2 1",
" 	c #BFBFBFBFBFBF",
".	c #999999999999",
"                            ",
"                            ",
"                            ",
"                            ",
"                            ",
"                            ",
"                            ",
"                            ",
"                            ",
"           ...  .           ",
"          .  ....           ",
"          .  . .            ",
"          .  . .            ",
"          ... . ...         ",
"             . .  .         ",
"             . .  .         ",
"            .  .  .         ",
"           .   ...          ",
"                            ",
"                            ",
"                            ",
"                            ",
"                            ",
"                            ",
"                            ",
"                            ",
"                            ",
"                            "};
