/* XPM */
static char * shell-up_xpm[] = {
"28 28 4 1",
" 	c #BFBFBFBFBFBF",
".	c #999999999999",
"X	c #000000000000",
"o	c #FFFFFFFFFFFF",
"                            ",
"                            ",
"                            ",
"                            ",
"                            ",
"                            ",
"                            ",
"                            ",
"         .XXX..X.           ",
"        .XoooXXoX           ",
"        XoXXooooX           ",
"        XoXXoXoX.           ",
"        XoXXoXoXXX.         ",
"        XoooXoXoooX         ",
"        .XXXoXoXXoX         ",
"          .XoXoXXoX         ",
"         .XoXXoXXoX         ",
"         XoX.XoooX.         ",
"         ... .X.X.          ",
"                            ",
"                            ",
"                            ",
"                            ",
"                            ",
"                            ",
"                            ",
"                            ",
"                            "};
