/* XPM */
static char * shell-cap-up_xpm[] = {
"33 33 4 1",
" 	c #BFBFBFBFBFBF",
".	c #999999999999",
"X	c #000000000000",
"o	c #9898BFBFA1A1",
"                                 ",
"                                 ",
"                                 ",
"                                 ",
"                                 ",
"                                 ",
"            .XXX..X.             ",
"           .XoooXXoX             ",
"           XoXXooooX             ",
"           XoXXoXoX.             ",
"           XoXXoXoXXX.           ",
"           XoooXoXoooX           ",
"           .XXXoXoXXoX           ",
"             .XoXoXXoX           ",
"            .XoXXoXXoX           ",
"            XoX.XoooX.           ",
"            ... .X.X.            ",
"                                 ",
"                                 ",
"                                 ",
"                                 ",
"                                 ",
"      XXXX XX         XX XX      ",
"     X   X  X          X  X      ",
"     X   X  X          X  X      ",
"     XX     X XX   XX  X  X      ",
"       X    XX X  X  X X  X      ",
"        XX  X  X  XXXX X  X      ",
"     X   X  X  X  X    X  X      ",
"     X   X  X  X  X  X X  X      ",
"     XXXX  XXX XX  XX XXXXXX     ",
"                                 ",
"                                 "};
